<?xml version="1.0" encoding="UTF-8"?>
<svg id="_图层_1" data-name="图层 1" xmlns="http://www.w3.org/2000/svg" viewBox="0 0 479.88 394.21">
  <defs>
    <style>
      .cls-1 {
        fill: #fff;
      }

      .cls-2 {
        fill: #c1272d;
      }

      .cls-3 {
        stroke-width: 2.17px;
      }

      .cls-3, .cls-4, .cls-5 {
        fill: none;
      }

      .cls-3, .cls-5 {
        stroke: #fff;
        stroke-miterlimit: 10;
      }

      .cls-4 {
        stroke: #333f4f;
        stroke-linecap: round;
        stroke-linejoin: round;
        stroke-width: 8.29px;
      }

      .cls-6 {
        fill: #333f4f;
      }

      .cls-5 {
        stroke-width: 2.82px;
      }
    </style>
  </defs>
  <circle class="cls-6" cx="244.64" cy="197.11" r="197.11"/>
  <g>
    <path class="cls-1" d="M174.75,53.54l4.82-2.06-5.27-12.31-4.18,1.79-1.43-3.35c2.23-1.53,3.55-2.82,4.72-4.47l3.99-1.71,7.59,17.74,4.08-1.75,1.88,4.39-14.32,6.13-1.88-4.39Z"/>
    <path class="cls-1" d="M205.46,44.66l2.36-4.09c.96,.75,2.62,1.23,3.98,.96,2.67-.54,4.32-2.93,3.1-9.01-1.18-5.88-3.35-7.07-5.14-6.71-1.53,.31-2.63,1.58-2.1,4.21,.49,2.44,1.95,2.96,3.6,2.62,1.17-.24,2.34-1.15,2.96-3.13l1.04,3.68c-.85,2-2.86,3.45-4.32,3.74-4.06,.82-7.54-.85-8.55-5.86-1-4.97,2.04-8.7,6.36-9.56,4.58-.92,9.71,1.57,11.4,9.95,1.75,8.71-2.06,13.67-7.03,14.67-3.22,.64-5.87-.24-7.67-1.47Z"/>
    <path class="cls-1" d="M237.09,39.35l2.72-3.69c1.38,1.34,3.09,2.39,5.05,2.41,2.39,.02,3.89-1.15,3.92-3.48,.02-2.29-1.46-3.56-3.58-3.59-1.36-.01-2.03,.28-3.49,1.19l-2.57-1.72,.75-12.23,13.86,.14-.05,4.94-8.79-.09-.41,4.18c.9-.36,1.63-.48,2.56-.47,4.18,.04,7.67,2.43,7.62,7.54-.05,5.34-4.26,8.42-9.01,8.37-3.95-.04-6.65-1.56-8.59-3.5Z"/>
    <path class="cls-1" d="M271.34,38.25c.63-2.82,2.76-4.14,5.23-4.84l.03-.13c-1.53-1.81-2.44-3.81-1.9-6.24,.91-4.08,4.67-5.85,9.11-4.86,4.34,.97,6.65,4.14,5.77,8.09-.49,2.2-2.31,3.66-4.17,4.37l-.04,.16c1.99,1.74,3.37,3.94,2.66,7.08-.83,3.72-4.83,5.78-9.88,4.66-4.72-1.06-7.67-4.47-6.81-8.29Zm11.4,2.21c.43-1.94-1.28-3.07-3.92-4.96-1.13,.67-2.1,1.81-2.41,3.17-.44,1.97,.89,3.46,2.77,3.88,1.68,.38,3.13-.18,3.56-2.09Zm2.09-10.85c.39-1.75-.37-3.07-2.05-3.45-1.33-.3-2.63,.23-3.03,2.01-.4,1.78,.93,2.99,3.05,4.45,1.08-.88,1.77-1.85,2.03-3.01Z"/>
    <path class="cls-1" d="M303.96,48.88l4.77,2.17,5.56-12.19-4.13-1.89,1.51-3.32c2.63,.62,4.48,.73,6.49,.48l3.95,1.8-8.01,17.56,4.04,1.85-1.98,4.34-14.18-6.47,1.98-4.34Z"/>
  </g>
  <circle class="cls-5" cx="244.64" cy="197.11" r="189.9"/>
  <circle class="cls-3" cx="244.64" cy="197.11" r="145.84"/>
  <circle class="cls-1" cx="244.64" cy="197.11" r="141.09"/>
  <path class="cls-2" d="M245.07,87.84c-1.55-1.62-1.84-3.97-1.22-6.04,.39,1.13,.88,2.21,1.41,3.29,1.11,.78,1.92,1.88,2.93,2.78,.24,.15,.34-.2,.5-.31,1.18,.73,2.28,1.6,3.32,2.5,.23,.06,.32-.31,.5-.43,.87,.38,1.81,.66,2.48,1.37,1.13-.02,1.91,1.03,2.64,1.74,.3,.15,.38-.43,.68-.25,1.6,.6,3.2,1.31,4.33,2.66,.82,.23,1.49,.8,1.93,1.52,1.27,.26,2.06,1.43,2.77,2.41,.86,1.55,1.85,3.03,2.52,4.67,.57-.69-.08-1.47-.27-2.17-.64-1.31-.65-2.79-1.09-4.16,.22-2.64-.44-5.71,1.39-7.95,.42-.23,.89,.36,1.31,.01-.1-.62-.17-1.25-.18-1.88,.28-.71,.58-1.41,.66-2.17,.4-.5,.95-.88,1.25-1.45,.41,.01,.9,.55,1.15-.02-.23-1.29,.53-2.43,1.36-3.34,.29-1.02,.73-2.03,1.6-2.69,.22,.14,.43,.29,.65,.43,.62-.57,.39-1.53,.83-2.21,.43-.65,.19-1.54,.68-2.15,.3,.13,.64,.67,.93,.24,.27-.78-.36-2.48,.79-2.55,.64-.6,.12-1.83,.89-2.36,.94-.6,.55-1.91,1.45-2.48,.15-.97,.76-1.88,1.74-2.11,.68,.05,.43,.89,.7,1.33-.4,.4-1.27,.9-.41,1.33-.36,.68,.15,1.52-.48,2.1-.49,.36-.06,.84-.09,1.3-.24,.4-.57,.74-.81,1.14,.93,.86-.08,2.03-.54,2.83,.36,.62,1.1-.51,.94,.55,.1,.79-.07,1.57-.38,2.29,.16,.36,.43,.35,.7,.08,.32,.82,.51,1.74,.17,2.58-.11,.2-.11,.52,.19,.51,.72-.01,.69,.85,.91,1.36-.1,.95,.06,1.99-.66,2.75,.32,.61,1.26-.13,1.58,.47,.04,.56,.2,1.1,.38,1.63-.37,1.65,.17,3.77-1.35,4.94,.22,.12,.47,.16,.72,.22,.08,1.16,.1,2.34-.08,3.49-.52,1.72-.45,3.71-1.84,5.05-.22,1.93-1.65,3.35-2.7,4.88,1.2-.39,1.61-1.78,2.76-2.23,1.09-.49,1.91-1.49,3.11-1.75,.7-.18,1.43-.96,2.18-.52,.43,.42,.91-.11,1.33-.31,1.21-.91,2.81-.48,4.16-.97,1.05-.37,2.19-.31,3.27-.16,.62,.65,1.62-.08,2.43-.11,.89-.3,1.8,.13,2.69-.05,.02,.28,.12,.49,.43,.42,1.3-.18,2.59-.6,3.81-1.1,.14,.24,.28,.49,.55,.21,1.96-1.73,4.57-2.28,7.06-2.49-.5,.47-.93,.99-1.27,1.59-1.37,.87-2.51,2.03-3.92,2.84,.16,.05,.32,.09,.47,.15-1.14,.83-2.37,1.54-3.55,2.3,.2,.1,.62,.11,.49,.44-.77,1.01-1.96,1.57-3,2.25,.13,.16,.52,.29,.23,.5-.73,1.23-1.84,2.13-3.2,2.55-.59,.19,.1,.46,.29,.71-1.07,.69-1.78,1.99-3.11,2.19,.05,.85-.97,1.21-1.27,1.94-.73,1.07-2.25,.89-3.08,1.85-1.51,1.32-3.56,1.33-5.41,1.74-1.55,.29-3.13,.11-4.69,.29,.62,.34,1.33,.76,2.05,.69,2.16,.49,3.99,1.72,5.8,2.94-.5,.46,.37,.78,.71,1.03,1.5,.78,1.75,2.59,3.01,3.6,.2,.17-.46,.38-.1,.54,1.01,.82,1.79,1.87,2.39,3.01,1.54,1.08,2.53,2.79,4.2,3.7,.48,.24,1,.45,1.34,.9-1.03,.11-2.06-.26-3.05-.52-1.07-.18-1.87-1.06-2.95-1.19-.91-.21-1.73-.73-2.62-.97-.86,.21-1.74,.03-2.6-.05-.64-.11-1.28-.81-1.92-.46-1.54,.29-3.08-.04-4.27-1.12-.6-.47-.13,.74-.69,.59-1.1-.03-2.04-.6-2.88-1.26-2.24-.6-2.97-3.12-4.6-4.5,.08,.89,.43,1.73,.67,2.58,.16,1.01,.01,2.1-.32,3.03-1.03-.07-.43,1.33-1.23,1.66-.46,.46-.07,1.19-.12,1.76-.77-1.86-2.72-2.94-3.27-4.9-.81-.43-1.27-1.5-1.19-2.43,.1-.73-.73-1.11-1.02-1.68-.19,1.02-1.26,1.93-2.23,1.24-1.3,1.59-1.91,3.63-2.96,5.4-1.45,3.07-2.92,6.13-4.35,9.21l-.42-.5c2.17-4.73,4.4-9.43,6.8-14.04-.47-.68-1.69-.26-1.91-1.24-.73-.61,.2-1.61-.52-2.11-.03-.99,.89-1.67,1.25-2.52-1.86,.32-3.63,1.48-5.55,1.13-1.11-.49-2.36,.03-3.51-.33-.96-.48-2.26-.09-2.81-1.3-1.39,.26-2.51-.67-3.78-.96-.48-.97-1.53-.71-2.34-1.13-1.03-.16-1.59-1.18-2.68-1.17-1-.76-2.23-1.24-2.77-2.47,1.77,1.89,4.81,1.35,6.86,.16,.5-.2,2.05,.07,1.29-.81,.95-.01,1.86-.29,2.79-.4,1.44,.09,2.84-.57,4.29-.19,1.33-.13,2.76,.73,3.98,.32-1.97-.76-3.84-1.76-5.73-2.71-1.57-.86-2.17-2.76-3.81-3.45-1.38-1.07-2.47-2.51-3.2-4.1-.18-.33,.69-.35,.43-.62-1.58-1.09-2.45-2.91-2.97-4.71,.15-1.67-.99-3.09-1.04-4.72-.54-1.31-.92-2.71-1.91-3.77-.6-.51,1.07-.57-.2-1.16Zm45.39,18.32,.97-.47"/>
  <path class="cls-2" d="M218.11,322.55c-.1,1.95-1.41,3.53-3.1,4.36,.48-.92,.88-1.87,1.24-2.84-.17-1.17,.05-2.33,.01-3.51-.05-.24-.33-.1-.5-.13-.24-1.18-.34-2.4-.39-3.59-.1-.18-.39-.02-.57-.06-.28-.78-.66-1.54-.61-2.39-.68-.7-.48-1.82-.47-2.7-.08-.28-.5,.02-.56-.28-.57-1.37-1.08-2.81-.9-4.32-.34-.65-.38-1.42-.18-2.12-.59-.95-.32-2.16-.12-3.19,.47-1.46,.81-2.97,1.45-4.37-.77,.05-.89,.92-1.21,1.46-.45,1.18-1.38,2.07-1.99,3.17-1.8,1.43-3.35,3.67-5.86,3.85-.39-.13-.3-.78-.77-.83-.33,.43-.69,.86-1.08,1.23-.61,.25-1.23,.47-1.77,.87-.55,.04-1.12-.08-1.66,.07-.24-.27-.19-.9-.7-.72-.68,.91-1.86,1.11-2.92,1.12-.82,.42-1.72,.74-2.65,.59-.04-.22-.07-.44-.11-.67-.73-.05-1.2,.66-1.89,.79-.67,.12-1.08,.79-1.77,.85-.1-.27,.04-.8-.4-.73-.66,.29-1.36,1.71-2.09,1.02-.76-.05-1.23,1.02-2.03,.84-.94-.23-1.53,.79-2.43,.55-.7,.48-1.64,.64-2.37,.15-.38-.46,.3-.8,.43-1.23,.49,.02,1.33,.27,1.09-.54,.64-.18,.87-1,1.61-.94,.52,.09,.57-.46,.88-.72,.4-.09,.81-.08,1.2-.16,0-1.1,1.33-1.16,2.12-1.34,.18-.6-.98-.39-.21-.92,.44-.53,1.03-.89,1.68-1.12,.13-.32-.03-.48-.36-.49,.33-.69,.8-1.35,1.53-1.64,.19-.05,.4-.24,.21-.43-.43-.44,.13-.95,.32-1.38,.66-.5,1.22-1.22,2.13-1.22,.19-.56-.83-.72-.65-1.28,.33-.36,.58-.78,.81-1.21,1.26-.75,2.28-2.35,3.93-2.08-.05-.21-.18-.39-.29-.59,.69-.74,1.42-1.46,2.26-2.03,1.4-.69,2.62-1.92,4.29-1.84,1.36-1.01,3.1-.95,4.69-1.19-.96-.53-2.09,.04-3.05-.43-.96-.4-2.08-.33-2.96-.93-.53-.33-1.45-.33-1.62-1.07,.01-.52-.61-.52-.99-.66-1.29-.23-1.98-1.5-3.09-2.06-.86-.44-1.5-1.2-2.05-1.97,.05-.78-1.02-.98-1.51-1.47-.71-.38-.99-1.21-1.63-1.67,.17-.18,.24-.36,0-.52-.89-.72-1.92-1.28-2.96-1.75,.06-.23,.14-.47-.2-.47-2.26-.21-4.16-1.54-5.77-2.99,.6,.03,1.18,0,1.76-.14,1.36,.35,2.78,.38,4.13,.79-.06-.13-.13-.25-.19-.39,1.2,.23,2.38,.58,3.57,.88-.06-.18-.3-.46-.01-.57,1.1-.11,2.15,.31,3.2,.56,.02-.18-.13-.5,.18-.44,1.21-.27,2.44-.1,3.51,.51,.47,.26,.23-.34,.27-.61,1.07,.27,2.31-.06,3.24,.67,.51-.54,1.34-.11,1.98-.35,1.11-.17,1.9,.89,3,.85,1.74,.17,2.96,1.46,4.32,2.39,1.11,.8,1.93,1.92,2.97,2.8-.15-.59-.31-1.29-.78-1.7-.97-1.66-1.28-3.55-1.58-5.42,.59,.04,.27-.7,.23-1.06-.4-1.41,.59-2.65,.49-4.05-.01-.23,.51,.07,.4-.26-.08-1.12,.12-2.24,.49-3.3-.24-1.62,.26-3.26-.16-4.86-.13-.45-.31-.9-.23-1.38,.68,.58,1.06,1.46,1.49,2.24,.52,.79,.44,1.82,1,2.58,.41,.7,.56,1.53,.94,2.24,.65,.42,1.05,1.08,1.52,1.67,.31,.47,.25,1.29,.85,1.49,1.1,.8,1.81,1.97,1.83,3.37,.06,.66,.54-.36,.79,.09,.63,.72,.83,1.65,.92,2.57,.95,1.77-.21,3.73-.11,5.59,.52-.58,.84-1.3,1.24-1.96,.55-.7,1.32-1.26,2.1-1.6,.57,.69,1.1-.52,1.78-.21,.57,.02,.79-.66,1.19-.97-.72,1.59-.25,3.47-1.16,4.98,.2,.77-.19,1.7-.83,2.2-.52,.37-.27,1.12-.46,1.64,.75-.49,1.97-.35,2.11,.67,1.77-.12,3.44-.95,5.17-1.34,2.81-.91,5.62-1.8,8.42-2.72l-.06,.56c-4.28,1.44-8.58,2.82-12.93,4.05-.15,.7,.84,1.23,.35,1.94,.05,.83-1.14,.83-1.03,1.59-.61,.61-1.58,.43-2.34,.71,1.31,.98,3.1,1.41,4.02,2.84,.35,.99,1.42,1.47,1.88,2.42,.27,.89,1.29,1.49,.85,2.56,.99,.72,1.07,1.99,1.64,2.96-.33,.88,.46,1.39,.67,2.15,.51,.75,.2,1.71,.85,2.39,.12,1.08,.54,2.15,.08,3.22,.14-2.24-2-3.85-3.98-4.43-.43-.2-1.18-1.34-1.28-.34-.57-.59-1.29-1.01-1.92-1.53-.8-.97-2.05-1.46-2.67-2.6-.87-.77-1.18-2.18-2.16-2.71,.69,1.7,1.17,3.48,1.69,5.23,.39,1.5-.46,3.01,.08,4.47,.14,1.51-.11,3.06-.69,4.46-.11,.31-.63-.23-.65,.09,.25,1.65-.39,3.28-1.21,4.68-1.14,.9-1.36,2.46-2.37,3.46-.51,1.12-1.17,2.2-1.25,3.45,.03,.68-.99-.34-.62,.81Zm-15.39-39.62-.87-.33"/>
  <path class="cls-2" d="M285.36,282.22c-.04,.74-.54,1.34-1.18,1.66,.18-.35,.33-.71,.47-1.08-.06-.44,.02-.89,0-1.34-.02-.09-.12-.04-.19-.05-.09-.45-.13-.91-.15-1.37-.04-.07-.15,0-.22-.02-.11-.3-.25-.59-.23-.91-.26-.27-.18-.7-.18-1.03-.03-.11-.19,0-.21-.11-.22-.52-.41-1.07-.34-1.65-.13-.25-.14-.54-.07-.81-.22-.36-.12-.82-.05-1.21,.18-.56,.31-1.13,.55-1.67-.3,.02-.34,.35-.46,.56-.17,.45-.53,.79-.76,1.21-.69,.54-1.28,1.4-2.23,1.47-.15-.05-.12-.3-.29-.32-.13,.16-.26,.33-.41,.47-.23,.09-.47,.18-.67,.33-.21,.02-.43-.03-.63,.03-.09-.1-.07-.34-.27-.27-.26,.35-.71,.42-1.11,.43-.31,.16-.65,.28-1.01,.22-.02-.08-.03-.17-.04-.25-.28-.02-.46,.25-.72,.3-.25,.04-.41,.3-.67,.32-.04-.1,.02-.31-.15-.28-.25,.11-.52,.65-.79,.39-.29-.02-.47,.39-.77,.32-.36-.09-.58,.3-.93,.21-.27,.18-.62,.24-.9,.06-.14-.18,.12-.3,.16-.47,.19,0,.51,.1,.41-.2,.25-.07,.33-.38,.62-.36,.2,.04,.22-.18,.33-.27,.15-.03,.31-.03,.46-.06,0-.42,.51-.44,.81-.51,.07-.23-.37-.15-.08-.35,.17-.2,.39-.34,.64-.43,.05-.12-.01-.18-.14-.19,.12-.26,.3-.52,.58-.63,.07-.02,.15-.09,.08-.16-.17-.17,.05-.36,.12-.53,.25-.19,.46-.47,.81-.46,.07-.22-.32-.27-.25-.49,.13-.14,.22-.3,.31-.46,.48-.28,.87-.9,1.5-.79-.02-.08-.07-.15-.11-.22,.26-.28,.54-.56,.86-.77,.53-.26,1-.73,1.64-.7,.52-.38,1.18-.36,1.79-.46-.37-.2-.79,.02-1.16-.16-.37-.15-.79-.12-1.13-.35-.2-.13-.55-.13-.62-.41,0-.2-.23-.2-.38-.25-.49-.09-.75-.57-1.18-.78-.33-.17-.57-.46-.78-.75,.02-.3-.39-.37-.58-.56-.27-.15-.38-.46-.62-.64,.06-.07,.09-.14,0-.2-.34-.27-.73-.49-1.13-.67,.02-.09,.05-.18-.07-.18-.86-.08-1.59-.59-2.2-1.14,.23,.01,.45,0,.67-.05,.52,.13,1.06,.15,1.57,.3-.02-.05-.05-.1-.07-.15,.46,.09,.91,.22,1.36,.34-.02-.07-.11-.18,0-.22,.42-.04,.82,.12,1.22,.21,0-.07-.05-.19,.07-.17,.46-.1,.93-.04,1.34,.19,.18,.1,.09-.13,.1-.23,.41,.1,.88-.02,1.23,.25,.19-.21,.51-.04,.76-.13,.42-.07,.72,.34,1.14,.32,.66,.06,1.13,.56,1.65,.91,.42,.31,.74,.73,1.13,1.07-.06-.23-.12-.49-.3-.65-.37-.63-.49-1.35-.6-2.06,.23,.02,.1-.27,.09-.4-.15-.54,.23-1.01,.19-1.54,0-.09,.2,.03,.15-.1-.03-.43,.05-.85,.18-1.26-.09-.62,.1-1.24-.06-1.85-.05-.17-.12-.34-.09-.53,.26,.22,.4,.56,.57,.85,.2,.3,.17,.69,.38,.98,.15,.27,.21,.58,.36,.85,.25,.16,.4,.41,.58,.64,.12,.18,.1,.49,.32,.57,.42,.3,.69,.75,.7,1.28,.02,.25,.21-.14,.3,.03,.24,.27,.32,.63,.35,.98,.36,.67-.08,1.42-.04,2.13,.2-.22,.32-.5,.47-.75,.21-.27,.5-.48,.8-.61,.22,.26,.42-.2,.68-.08,.22,0,.3-.25,.45-.37-.28,.61-.09,1.32-.44,1.9,.08,.29-.07,.65-.32,.84-.2,.14-.1,.43-.17,.62,.29-.19,.75-.13,.8,.26,.68-.05,1.31-.36,1.97-.51,1.07-.35,2.14-.68,3.21-1.04l-.02,.21c-1.63,.55-3.27,1.07-4.93,1.54-.06,.27,.32,.47,.13,.74,.02,.31-.43,.32-.39,.6-.23,.23-.6,.16-.89,.27,.5,.37,1.18,.54,1.53,1.08,.13,.38,.54,.56,.71,.92,.1,.34,.49,.57,.32,.97,.38,.28,.41,.76,.62,1.13-.13,.34,.18,.53,.26,.82,.19,.28,.08,.65,.32,.91,.04,.41,.21,.82,.03,1.23,.05-.86-.76-1.47-1.52-1.69-.16-.07-.45-.51-.49-.13-.22-.23-.49-.38-.73-.58-.3-.37-.78-.55-1.02-.99-.33-.29-.45-.83-.82-1.03,.26,.65,.45,1.32,.65,1.99,.15,.57-.17,1.15,.03,1.7,.05,.58-.04,1.16-.26,1.7-.04,.12-.24-.09-.25,.04,.1,.63-.15,1.25-.46,1.78-.44,.34-.52,.94-.9,1.32-.19,.43-.45,.84-.48,1.32,.01,.26-.38-.13-.24,.31Zm-5.86-15.09-.33-.13"/>
  <path class="cls-2" d="M138.51,124.97c-1.05-1.09-1.25-2.68-.82-4.08,.27,.76,.59,1.49,.95,2.22,.75,.53,1.3,1.27,1.98,1.88,.17,.1,.23-.13,.34-.21,.8,.49,1.54,1.08,2.24,1.69,.15,.04,.22-.21,.34-.29,.59,.26,1.22,.44,1.68,.93,.76-.01,1.29,.7,1.78,1.18,.21,.1,.25-.29,.46-.17,1.08,.41,2.17,.89,2.93,1.8,.55,.15,1.01,.54,1.3,1.03,.86,.17,1.4,.97,1.87,1.63,.58,1.05,1.25,2.05,1.71,3.16,.38-.47-.05-1-.18-1.47-.43-.89-.44-1.89-.74-2.81,.15-1.78-.3-3.86,.94-5.38,.28-.15,.6,.24,.88,0-.07-.42-.12-.85-.12-1.27,.19-.48,.39-.95,.45-1.47,.27-.34,.64-.59,.85-.98,.28,0,.61,.37,.78-.01-.15-.87,.36-1.64,.92-2.26,.2-.69,.49-1.37,1.08-1.82,.15,.09,.29,.2,.44,.29,.42-.39,.26-1.04,.56-1.49,.29-.44,.13-1.04,.46-1.45,.2,.09,.43,.45,.63,.16,.19-.53-.24-1.68,.54-1.73,.43-.41,.08-1.24,.6-1.6,.63-.41,.37-1.29,.98-1.67,.1-.65,.51-1.27,1.18-1.43,.46,.03,.29,.6,.47,.9-.27,.27-.86,.61-.28,.9-.24,.46,.1,1.03-.33,1.42-.33,.25-.04,.57-.06,.88-.16,.27-.38,.5-.55,.77,.63,.58-.05,1.37-.37,1.92,.24,.42,.74-.35,.63,.37,.07,.53-.05,1.06-.26,1.55,.11,.25,.29,.24,.47,.06,.21,.55,.34,1.18,.12,1.75-.07,.13-.08,.35,.13,.35,.48,0,.47,.58,.62,.92-.07,.64,.04,1.34-.44,1.86,.22,.41,.85-.09,1.07,.31,.03,.38,.13,.74,.26,1.1-.25,1.12,.12,2.55-.91,3.34,.15,.08,.32,.11,.49,.15,.06,.79,.07,1.59-.06,2.36-.35,1.16-.31,2.51-1.24,3.42-.15,1.31-1.12,2.26-1.82,3.3,.81-.26,1.09-1.2,1.87-1.51,.74-.33,1.29-1.01,2.1-1.18,.47-.12,.96-.65,1.47-.35,.29,.29,.62-.07,.9-.21,.82-.61,1.9-.32,2.81-.66,.71-.25,1.48-.21,2.21-.11,.42,.44,1.1-.06,1.64-.07,.6-.2,1.21,.09,1.82-.03,.01,.19,.08,.33,.29,.28,.88-.12,1.75-.4,2.57-.74,.1,.16,.19,.33,.37,.14,1.32-1.17,3.09-1.54,4.77-1.69-.34,.32-.63,.67-.86,1.07-.92,.59-1.7,1.37-2.65,1.92,.11,.03,.21,.06,.32,.1-.77,.56-1.6,1.04-2.4,1.56,.13,.06,.42,.07,.33,.3-.52,.68-1.32,1.06-2.03,1.52,.09,.11,.35,.2,.15,.34-.49,.83-1.24,1.44-2.16,1.72-.4,.13,.07,.31,.2,.48-.72,.46-1.2,1.34-2.11,1.48,.04,.58-.66,.82-.86,1.31-.49,.72-1.52,.6-2.08,1.25-1.02,.89-2.4,.9-3.66,1.18-1.04,.2-2.12,.08-3.17,.2,.42,.23,.9,.52,1.38,.47,1.46,.33,2.7,1.16,3.92,1.99-.34,.31,.25,.53,.48,.7,1.01,.52,1.19,1.75,2.04,2.44,.14,.11-.31,.25-.07,.36,.68,.55,1.21,1.26,1.62,2.04,1.04,.73,1.71,1.89,2.84,2.5,.32,.17,.68,.31,.91,.61-.7,.08-1.39-.18-2.06-.35-.72-.12-1.27-.72-2-.81-.61-.14-1.17-.49-1.77-.66-.58,.14-1.17,.02-1.76-.03-.43-.07-.86-.54-1.3-.31-1.04,.2-2.09-.03-2.88-.76-.41-.32-.09,.5-.47,.4-.74-.02-1.38-.41-1.95-.85-1.51-.4-2.01-2.11-3.11-3.04,.05,.6,.29,1.17,.45,1.75,.11,.68,0,1.42-.21,2.05-.69-.05-.29,.9-.83,1.12-.31,.31-.05,.8-.08,1.19-.52-1.26-1.84-1.99-2.21-3.31-.55-.29-.86-1.01-.81-1.64,.07-.49-.49-.75-.69-1.13-.13,.69-.85,1.31-1.51,.84-.88,1.07-1.29,2.46-2,3.65-.98,2.08-1.98,4.15-2.94,6.23l-.28-.34c1.47-3.2,2.98-6.37,4.59-9.5-.31-.46-1.14-.18-1.29-.84-.5-.41,.14-1.09-.35-1.43-.02-.67,.6-1.13,.84-1.7-1.26,.22-2.45,1-3.75,.77-.75-.33-1.59,.02-2.37-.22-.65-.33-1.53-.06-1.9-.88-.94,.18-1.7-.45-2.55-.65-.32-.66-1.04-.48-1.58-.77-.7-.11-1.08-.8-1.81-.79-.68-.51-1.51-.84-1.87-1.67,1.2,1.28,3.25,.91,4.64,.11,.34-.14,1.39,.05,.88-.55,.64,0,1.26-.19,1.89-.27,.98,.06,1.92-.39,2.9-.13,.9-.09,1.86,.49,2.69,.22-1.33-.52-2.6-1.19-3.87-1.83-1.06-.58-1.47-1.87-2.58-2.34-.94-.73-1.67-1.69-2.16-2.77-.12-.23,.47-.24,.29-.42-1.07-.74-1.66-1.97-2.01-3.18,.1-1.13-.67-2.09-.7-3.19-.36-.88-.62-1.84-1.29-2.55-.4-.35,.72-.39-.13-.78Zm30.69,12.39,.65-.32"/>
  <path class="cls-2" d="M204.49,120c-.62-.64-.73-1.58-.48-2.4,.16,.45,.35,.88,.56,1.31,.44,.31,.76,.75,1.17,1.1,.1,.06,.14-.08,.2-.12,.47,.29,.91,.64,1.32,1,.09,.02,.13-.12,.2-.17,.35,.15,.72,.26,.99,.54,.45,0,.76,.41,1.05,.69,.12,.06,.15-.17,.27-.1,.64,.24,1.27,.52,1.72,1.06,.33,.09,.59,.32,.77,.6,.5,.1,.82,.57,1.1,.96,.34,.62,.74,1.2,1,1.85,.23-.27-.03-.58-.11-.86-.25-.52-.26-1.11-.43-1.65,.09-1.05-.18-2.27,.55-3.16,.17-.09,.35,.14,.52,0-.04-.25-.07-.5-.07-.75,.11-.28,.23-.56,.26-.86,.16-.2,.38-.35,.5-.58,.16,0,.36,.22,.46,0-.09-.51,.21-.97,.54-1.33,.12-.4,.29-.81,.64-1.07,.09,.05,.17,.12,.26,.17,.25-.23,.15-.61,.33-.88,.17-.26,.07-.61,.27-.85,.12,.05,.25,.27,.37,.1,.11-.31-.14-.99,.31-1.01,.25-.24,.05-.73,.36-.94,.37-.24,.22-.76,.58-.98,.06-.38,.3-.75,.69-.84,.27,.02,.17,.35,.28,.53-.16,.16-.5,.36-.16,.53-.14,.27,.06,.6-.19,.83-.19,.14-.03,.33-.04,.52-.1,.16-.23,.29-.32,.45,.37,.34-.03,.81-.22,1.13,.14,.25,.44-.2,.37,.22,.04,.31-.03,.62-.15,.91,.06,.14,.17,.14,.28,.03,.13,.32,.2,.69,.07,1.03-.04,.08-.04,.21,.08,.2,.28,0,.28,.34,.36,.54-.04,.38,.03,.79-.26,1.09,.13,.24,.5-.05,.63,.18,.02,.22,.08,.44,.15,.65-.15,.66,.07,1.5-.54,1.97,.09,.05,.19,.06,.29,.09,.03,.46,.04,.93-.03,1.39-.21,.68-.18,1.48-.73,2.01-.09,.77-.66,1.33-1.07,1.94,.48-.15,.64-.71,1.1-.88,.43-.2,.76-.59,1.24-.69,.28-.07,.57-.38,.86-.21,.17,.17,.36-.04,.53-.12,.48-.36,1.12-.19,1.65-.39,.42-.15,.87-.12,1.3-.07,.25,.26,.64-.03,.97-.04,.35-.12,.71,.05,1.07-.02,0,.11,.05,.19,.17,.17,.52-.07,1.03-.24,1.51-.44,.06,.09,.11,.19,.22,.08,.78-.69,1.82-.91,2.81-.99-.2,.19-.37,.39-.51,.63-.54,.35-1,.81-1.56,1.13,.06,.02,.13,.04,.19,.06-.45,.33-.94,.61-1.41,.91,.08,.04,.25,.04,.19,.17-.31,.4-.78,.62-1.19,.89,.05,.06,.21,.11,.09,.2-.29,.49-.73,.85-1.27,1.01-.24,.08,.04,.18,.12,.28-.42,.27-.71,.79-1.24,.87,.02,.34-.39,.48-.5,.77-.29,.42-.89,.36-1.22,.74-.6,.53-1.41,.53-2.15,.69-.61,.12-1.25,.04-1.87,.11,.25,.14,.53,.3,.81,.27,.86,.19,1.59,.68,2.3,1.17-.2,.18,.15,.31,.28,.41,.6,.31,.7,1.03,1.2,1.43,.08,.07-.18,.15-.04,.21,.4,.33,.71,.74,.95,1.2,.61,.43,1.01,1.11,1.67,1.47,.19,.1,.4,.18,.53,.36-.41,.04-.82-.11-1.21-.2-.43-.07-.74-.42-1.17-.47-.36-.09-.69-.29-1.04-.39-.34,.08-.69,.01-1.03-.02-.25-.04-.51-.32-.76-.18-.61,.12-1.23-.01-1.7-.45-.24-.19-.05,.29-.28,.23-.44-.01-.81-.24-1.14-.5-.89-.24-1.18-1.24-1.83-1.79,.03,.35,.17,.69,.27,1.03,.06,.4,0,.84-.13,1.2-.41-.03-.17,.53-.49,.66-.18,.18-.03,.47-.05,.7-.3-.74-1.08-1.17-1.3-1.95-.32-.17-.51-.6-.47-.97,.04-.29-.29-.44-.4-.67-.07,.4-.5,.77-.89,.49-.51,.63-.76,1.44-1.18,2.14-.58,1.22-1.16,2.44-1.73,3.66l-.17-.2c.86-1.88,1.75-3.75,2.7-5.58-.18-.27-.67-.11-.76-.49-.29-.24,.08-.64-.21-.84-.01-.39,.35-.66,.5-1-.74,.13-1.44,.59-2.21,.45-.44-.2-.94,.01-1.39-.13-.38-.19-.9-.04-1.12-.52-.55,.1-1-.26-1.5-.38-.19-.39-.61-.28-.93-.45-.41-.06-.63-.47-1.06-.47-.4-.3-.89-.49-1.1-.98,.71,.75,1.91,.54,2.73,.06,.2-.08,.82,.03,.51-.32,.38,0,.74-.11,1.11-.16,.57,.04,1.13-.23,1.71-.08,.53-.05,1.1,.29,1.58,.13-.78-.3-1.53-.7-2.28-1.08-.62-.34-.86-1.1-1.51-1.37-.55-.43-.98-1-1.27-1.63-.07-.13,.27-.14,.17-.24-.63-.43-.97-1.16-1.18-1.87,.06-.66-.39-1.23-.41-1.88-.21-.52-.37-1.08-.76-1.5-.24-.2,.42-.23-.08-.46Zm18.04,7.28,.38-.19"/>
  <g>
    <path class="cls-6" d="M11.96,255.8l25.88-69.26,15.47-3.66-26.37,71.43-14.98,1.49Zm46.3-69.23c-1.4-.82-2.97-1.32-4.7-1.5-1.73-.18-3.5-.11-5.33,.2-1.83,.31-3.62,.79-5.39,1.45-1.77,.66-3.4,1.41-4.89,2.26-1.49,.85-2.8,1.69-3.94,2.53-1.14,.84-1.96,1.57-2.47,2.18-2.22-.89-3.66-2.09-4.32-3.6-.66-1.51-.64-3.02,.05-4.53,.69-1.51,1.96-2.9,3.79-4.16,1.83-1.26,4.12-2.07,6.87-2.44,2.74-.37,5.84-.16,9.28,.62s7.11,2.44,11,4.99l.04,1.99ZM6.61,253.27c1.45,.74,3.04,1.15,4.77,1.23,1.73,.08,3.5-.09,5.31-.5,1.81-.41,3.57-.99,5.3-1.75,1.73-.76,3.31-1.6,4.76-2.53,1.44-.93,2.71-1.85,3.79-2.75,1.09-.9,1.87-1.68,2.35-2.32,2.27,.76,3.77,1.88,4.51,3.35,.75,1.47,.81,2.98,.2,4.52-.61,1.55-1.79,3-3.55,4.36-1.76,1.36-4,2.3-6.72,2.82-2.72,.52-5.82,.49-9.3-.1-3.48-.59-7.24-2.04-11.26-4.37l-.15-1.99Z"/>
    <path class="cls-6" d="M38.39,253.51l14.82-39.61,15.56-3.77-15.6,41.91-14.78,1.47Zm38.37-44.18c3.4-.34,5.77,.01,7.12,1.06,1.35,1.04,2.07,2.43,2.18,4.17,.1,1.74-.23,3.67-.99,5.8-.76,2.13-1.54,4.1-2.34,5.93-.79,1.83-1.41,3.35-1.86,4.57-.45,1.22-.31,1.8,.42,1.72,1.13-.11,2.3-.72,3.5-1.81,1.2-1.09,2.31-2.3,3.32-3.61,1.12-1.52,2.23-3.25,3.32-5.17-1.14,2.74-2.51,5.2-4.11,7.37-1.43,1.89-3.22,3.66-5.37,5.32-2.16,1.66-4.77,2.65-7.83,2.95-2.73,.27-4.6-.08-5.6-1.05-1-.97-1.47-2.29-1.4-3.95,.07-1.65,.46-3.48,1.17-5.46,.71-1.99,1.42-3.84,2.12-5.56,.7-1.72,1.18-3.13,1.44-4.23,.26-1.1-.04-1.61-.91-1.52-1.2,.12-2.34,.81-3.43,2.06-1.09,1.25-2.03,2.59-2.83,4.01-.97,1.71-1.83,3.58-2.57,5.6-.46,.79-.96,1.52-1.49,2.22-.54,.69-1,1.29-1.38,1.8-.39,.51-.71,.86-.96,1.05s-.32,.15-.21-.13c.93-2.85,2.06-5.62,3.41-8.31,1.35-2.69,2.82-5.11,4.42-7.25,1.6-2.14,3.31-3.89,5.13-5.25,1.81-1.36,3.72-2.14,5.72-2.34Z"/>
    <path class="cls-6" d="M114.92,205.53c3.99-.4,7.04,.29,9.13,2.07,2.09,1.78,3.32,4.14,3.68,7.1,.36,2.96-.03,6.24-1.19,9.85-1.15,3.61-2.95,7.04-5.38,10.27-2.44,3.24-5.44,6.03-9,8.36-3.57,2.34-7.55,3.73-11.94,4.17-4,.4-7.12-.28-9.38-2.04-2.26-1.76-3.7-4.1-4.33-7.03-.63-2.93-.45-6.19,.54-9.79,.99-3.59,2.7-7.01,5.13-10.25,2.43-3.23,5.55-6.04,9.35-8.4,3.8-2.36,8.26-3.8,13.39-4.31Zm-14.28,39.96c1.13-.11,2.41-1.15,3.83-3.1,1.42-1.96,2.81-4.37,4.17-7.23,1.36-2.86,2.64-5.93,3.82-9.21,1.19-3.28,2.1-6.31,2.72-9.1,.63-2.78,.92-5.08,.88-6.89-.05-1.81-.57-2.67-1.57-2.57-1.6,.16-3.17,1.22-4.73,3.19-1.55,1.97-3.01,4.39-4.37,7.24-1.36,2.86-2.57,5.93-3.62,9.19-1.05,3.27-1.83,6.28-2.32,9.06-.5,2.77-.67,5.06-.53,6.86,.15,1.8,.72,2.65,1.72,2.55Z"/>
    <path class="cls-6" d="M305.44,219.14c.6-.06,1.25-.48,1.94-1.25s1.41-1.76,2.13-2.94c.72-1.18,1.46-2.53,2.22-4.05s1.49-3.09,2.2-4.71c1.65-3.73,3.35-7.93,5.1-12.61-.16,1.1-.44,2.57-.82,4.42-.39,1.86-.92,3.89-1.61,6.11-.69,2.22-1.51,4.47-2.45,6.75-.95,2.28-2.09,4.38-3.41,6.29-1.32,1.91-2.83,3.51-4.52,4.79-1.69,1.28-3.6,2.02-5.73,2.23-3.26,.32-5.73-.42-7.39-2.24-1.66-1.82-2.6-4.21-2.83-7.18-.23-2.97,.2-6.24,1.29-9.81,1.09-3.57,2.75-6.97,4.99-10.18,2.23-3.22,5.02-5.98,8.35-8.3,3.33-2.31,7.1-3.68,11.29-4.1,2.33-.23,4.34,.02,6.03,.76,1.69,.74,3.05,1.63,4.1,2.67,1.26,1.15,2.23,2.54,2.93,4.15l-1.54,.76c-.58-1.15-1.29-2.16-2.12-3.02-.68-.74-1.47-1.4-2.37-1.98-.9-.58-1.81-.83-2.75-.74-1.73,.17-3.48,1.16-5.26,2.95-1.77,1.79-3.44,3.97-5,6.55-1.56,2.58-2.93,5.34-4.12,8.28-1.19,2.94-2.04,5.65-2.57,8.12-.53,2.47-.68,4.51-.45,6.1,.23,1.59,1,2.32,2.34,2.19Zm10.15-16.55c.79-2.23,1.59-4.45,2.41-6.65,.82-2.2,1.58-4.21,2.27-6.03,.8-2.1,1.54-4.09,2.23-5.97l15.56-3.77c-.7,1.75-1.44,3.74-2.23,5.97-.75,1.89-1.59,4.13-2.51,6.71-.92,2.58-2,5.44-3.23,8.59-1.23,3.15-2.2,5.75-2.9,7.8-.71,2.06-1.2,3.69-1.48,4.89-.28,1.21-.34,2.04-.15,2.49,.18,.45,.57,.65,1.17,.59,1.13-.11,2.39-1.01,3.77-2.7,1.38-1.69,2.64-3.53,3.79-5.52,1.38-2.36,2.76-4.98,4.16-7.88-1.11,3.74-2.55,7.11-4.34,10.12-.75,1.29-1.6,2.55-2.55,3.79-.95,1.24-2.03,2.37-3.24,3.4-1.21,1.03-2.54,1.89-3.98,2.57-1.45,.68-3,1.11-4.66,1.27-3.13,.31-5.26-.11-6.38-1.28-1.12-1.17-1.65-2.73-1.58-4.69,.07-1.96,.53-4.17,1.36-6.64,.83-2.47,1.67-4.82,2.52-7.06Z"/>
    <path class="cls-6" d="M332.7,244.67l23.77-64.11,15.56-3.77-23.77,64.11-15.56,3.77Zm42.88-62.68c-.73,.07-1.53,.54-2.38,1.4-.86,.86-1.72,1.97-2.59,3.33-.87,1.37-1.76,2.9-2.67,4.6s-1.77,3.44-2.61,5.2c-1.94,4.16-3.9,8.83-5.87,14,.07-.68,.3-1.71,.7-3.1,.35-1.18,.87-2.77,1.54-4.79,.67-2.02,1.62-4.67,2.84-7.95,.86-2.17,1.79-4.33,2.78-6.48,1-2.15,2.16-4.1,3.5-5.85,1.34-1.75,2.87-3.21,4.61-4.39,1.73-1.18,3.73-1.89,5.99-2.11,3.06-.31,5.37,.46,6.94,2.28,1.56,1.83,2.44,4.23,2.63,7.2,.2,2.97-.25,6.25-1.34,9.82-1.09,3.57-2.74,6.97-4.94,10.18-2.2,3.21-4.9,5.97-8.1,8.27-3.2,2.3-6.8,3.65-10.79,4.05-3.06,.3-5.55,.12-7.47-.57-1.92-.68-3.43-1.54-4.55-2.57-1.32-1.08-2.26-2.43-2.83-4.06l1.53-.86c.58,1.15,1.29,2.16,2.12,3.02,.68,.74,1.55,1.38,2.61,1.91,1.06,.53,2.26,.73,3.59,.6,1.67-.17,3.35-1.12,5.06-2.87,1.71-1.75,3.3-3.86,4.77-6.33,1.47-2.47,2.77-5.13,3.89-8,1.13-2.87,1.96-5.49,2.49-7.87,.54-2.37,.71-4.34,.52-5.9-.19-1.56-.85-2.29-1.98-2.17Z"/>
    <path class="cls-6" d="M406.59,193.53c.36-1.11,.91-2.65,1.66-4.6,.75-1.95,1.57-4.14,2.47-6.55,.9-2.41,1.86-4.98,2.87-7.7,1-2.72,2.01-5.41,3.03-8.07,2.33-6.28,4.89-13.03,7.67-20.23l15.56-3.77c-2.66,7.06-5.18,13.8-7.57,20.23-1.01,2.72-2.04,5.5-3.1,8.33-1.06,2.83-2.1,5.56-3.12,8.18-1.02,2.62-1.95,5.07-2.8,7.34-.85,2.27-1.57,4.17-2.16,5.71-1.23,3.15-2.2,5.75-2.9,7.81-.71,2.05-1.2,3.68-1.48,4.89-.28,1.21-.33,2.04-.15,2.49,.18,.45,.57,.65,1.17,.59,1.13-.11,2.39-1.01,3.77-2.7,1.38-1.69,2.64-3.53,3.79-5.52,1.38-2.36,2.76-4.98,4.16-7.88-1.11,3.74-2.55,7.11-4.34,10.12-.75,1.29-1.6,2.55-2.55,3.79s-2.03,2.37-3.24,3.4c-1.21,1.03-2.54,1.89-3.98,2.57-1.45,.68-3,1.11-4.66,1.27-3.13,.31-5.26-.11-6.38-1.28-1.12-1.17-1.65-2.73-1.58-4.69,.07-1.96,.53-4.17,1.36-6.64,.83-2.47,1.67-4.82,2.52-7.06Z"/>
    <path class="cls-6" d="M455.54,207.01c4.53-.45,8.55-2.13,12.06-5.04,3.51-2.9,6.85-6.63,10.03-11.19-1.06,2.19-2.44,4.33-4.15,6.42-1.71,2.09-3.64,3.98-5.79,5.67-2.15,1.69-4.48,3.1-6.99,4.23-2.51,1.13-5.16,1.83-7.96,2.11-4.33,.43-7.69-.22-10.08-1.97-2.39-1.74-3.89-4.1-4.49-7.07-.6-2.97-.37-6.23,.69-9.8,1.06-3.57,2.83-6.99,5.33-10.27,2.5-3.27,5.65-6.09,9.45-8.46,3.8-2.36,8.16-3.79,13.09-4.28,3.33-.33,5.92,.05,7.78,1.14,1.86,1.1,3.02,2.59,3.47,4.5,.46,1.91,.21,4.08-.76,6.53-.97,2.45-2.64,4.89-5.02,7.31s-5.42,4.66-9.12,6.71c-3.7,2.05-8.08,3.66-13.14,4.84-.9-.25-1.18-.55-.85-.93,.33-.37,.73-.61,1.19-.72,1.78-.38,3.51-1.34,5.21-2.89,1.69-1.55,3.25-3.37,4.65-5.46,1.41-2.09,2.66-4.28,3.78-6.58,1.12-2.29,1.97-4.4,2.55-6.3,.58-1.91,.9-3.48,.94-4.73s-.3-1.84-1.03-1.76c-.93,.09-2.17,1.13-3.73,3.1-1.55,1.97-3.13,4.41-4.72,7.33-1.59,2.92-3.05,6.02-4.37,9.31-1.32,3.29-2.23,6.34-2.72,9.15-.49,2.81-.44,5.09,.18,6.84s2.12,2.51,4.51,2.27Z"/>
    <rect class="cls-6" x="382.46" y="180.1" width="3.46" height="5.84"/>
  </g>
  <g>
    <path class="cls-4" d="M9.49,252.27l25.88-69.26,15.47-3.66-26.37,71.43-14.98,1.49Zm46.3-69.23c-1.4-.82-2.97-1.32-4.7-1.5-1.73-.18-3.5-.11-5.33,.2s-3.62,.79-5.39,1.45c-1.77,.66-3.4,1.41-4.89,2.26-1.49,.85-2.8,1.69-3.94,2.53-1.14,.84-1.96,1.57-2.47,2.18-2.22-.89-3.66-2.09-4.32-3.6-.66-1.51-.64-3.02,.05-4.53,.69-1.51,1.96-2.9,3.79-4.16,1.83-1.26,4.12-2.07,6.87-2.44,2.74-.37,5.84-.16,9.28,.62,3.44,.78,7.11,2.44,11,4.99l.04,1.99ZM4.14,249.74c1.45,.74,3.04,1.15,4.77,1.23,1.73,.08,3.5-.09,5.31-.5,1.81-.41,3.57-.99,5.3-1.75,1.73-.76,3.31-1.6,4.76-2.53,1.44-.93,2.71-1.85,3.79-2.75,1.09-.9,1.87-1.68,2.35-2.32,2.27,.76,3.77,1.88,4.51,3.35,.75,1.47,.81,2.98,.2,4.52-.61,1.55-1.79,3-3.55,4.36-1.76,1.36-4,2.3-6.72,2.82-2.72,.52-5.82,.49-9.3-.1-3.48-.59-7.24-2.04-11.26-4.37l-.15-1.99Z"/>
    <path class="cls-4" d="M35.92,249.98l14.82-39.61,15.56-3.77-15.6,41.91-14.78,1.47Zm38.37-44.18c3.4-.34,5.77,.01,7.12,1.06,1.35,1.04,2.07,2.43,2.18,4.17,.1,1.74-.23,3.67-.99,5.8-.76,2.13-1.54,4.1-2.34,5.93-.79,1.83-1.41,3.35-1.86,4.57-.45,1.22-.31,1.8,.42,1.72,1.13-.11,2.3-.72,3.5-1.81,1.2-1.09,2.31-2.3,3.32-3.61,1.12-1.52,2.23-3.25,3.32-5.17-1.14,2.74-2.51,5.2-4.11,7.37-1.43,1.89-3.22,3.66-5.37,5.32-2.16,1.66-4.77,2.65-7.83,2.95-2.73,.27-4.6-.08-5.6-1.05-1-.97-1.47-2.29-1.4-3.95,.07-1.65,.46-3.48,1.17-5.46,.71-1.99,1.42-3.84,2.12-5.56,.7-1.72,1.18-3.13,1.44-4.23,.26-1.1-.04-1.61-.91-1.52-1.2,.12-2.34,.81-3.43,2.06-1.09,1.25-2.03,2.59-2.83,4.01-.97,1.71-1.83,3.58-2.57,5.6-.46,.79-.96,1.52-1.49,2.22-.54,.69-1,1.29-1.38,1.8-.39,.51-.71,.86-.96,1.05s-.32,.15-.21-.13c.93-2.85,2.06-5.62,3.41-8.31,1.35-2.69,2.82-5.11,4.42-7.25,1.6-2.14,3.31-3.89,5.13-5.25,1.81-1.36,3.72-2.14,5.72-2.34Z"/>
    <path class="cls-4" d="M112.45,202c3.99-.4,7.04,.29,9.13,2.07,2.09,1.78,3.32,4.14,3.68,7.1,.36,2.96-.03,6.24-1.19,9.85-1.15,3.61-2.95,7.04-5.38,10.27-2.44,3.24-5.44,6.03-9,8.36-3.57,2.34-7.55,3.73-11.94,4.17-4,.4-7.12-.28-9.38-2.04-2.26-1.76-3.7-4.1-4.33-7.03-.63-2.93-.45-6.19,.54-9.79,.99-3.59,2.7-7.01,5.13-10.25,2.43-3.23,5.55-6.04,9.35-8.4,3.8-2.36,8.26-3.8,13.39-4.31Zm-14.28,39.96c1.13-.11,2.41-1.15,3.83-3.1,1.42-1.96,2.81-4.37,4.17-7.23,1.36-2.86,2.64-5.93,3.82-9.21,1.19-3.28,2.1-6.31,2.72-9.1,.63-2.78,.92-5.08,.88-6.89-.05-1.81-.57-2.67-1.57-2.57-1.6,.16-3.17,1.22-4.73,3.19-1.55,1.97-3.01,4.39-4.37,7.24-1.36,2.86-2.57,5.93-3.62,9.19-1.05,3.27-1.83,6.28-2.32,9.06-.5,2.77-.67,5.06-.53,6.86,.15,1.8,.72,2.65,1.72,2.55Z"/>
    <path class="cls-4" d="M133.61,240.25l14.16-39.96,14.16-3.53-13.59,41.91-14.72,1.58Zm39.57-44.3c4.66-.47,7.59,.91,8.78,4.12,1.19,3.21,.21,8.47-2.97,15.78-2.51,5.9-4.16,10.05-4.96,12.45-.8,2.4-.61,3.54,.59,3.42,1.13-.11,2.39-1.01,3.77-2.69,1.38-1.69,2.67-3.53,3.89-5.53,1.44-2.36,2.86-4.99,4.26-7.89-1.11,3.74-2.52,7.11-4.24,10.11-.75,1.29-1.6,2.55-2.55,3.79-.95,1.24-2.03,2.37-3.24,3.4s-2.54,1.89-3.98,2.57c-1.45,.68-3,1.11-4.67,1.27-2.06,.21-3.66,.06-4.78-.43-1.13-.49-1.9-1.22-2.34-2.19-.43-.97-.6-2.13-.5-3.48,.1-1.35,.38-2.79,.83-4.32,.45-1.52,.99-3.09,1.6-4.7,.61-1.61,1.22-3.15,1.81-4.62,.86-2.17,1.65-4.2,2.37-6.09s1.25-3.49,1.59-4.8c.34-1.31,.46-2.33,.35-3.06-.11-.73-.56-1.05-1.36-.97-.73,.07-1.53,.54-2.38,1.4-.86,.86-1.74,1.97-2.64,3.34-.91,1.37-1.81,2.9-2.72,4.61-.91,1.7-1.78,3.44-2.61,5.21-1.94,4.16-3.9,8.83-5.87,14,.07-.68,.3-1.71,.7-3.1,.35-1.18,.88-2.78,1.59-4.8s1.67-4.67,2.89-7.96c.81-2.19,1.79-4.33,2.78-6.48,1-2.15,2.16-4.1,3.5-5.85,1.34-1.75,2.86-3.21,4.56-4.39,1.7-1.18,3.68-1.88,5.95-2.11Z"/>
    <path class="cls-4" d="M302.97,215.62c.6-.06,1.25-.48,1.94-1.25s1.41-1.76,2.13-2.94c.72-1.18,1.46-2.53,2.22-4.05,.76-1.52,1.49-3.09,2.2-4.71,1.65-3.73,3.35-7.93,5.1-12.61-.16,1.1-.44,2.57-.82,4.42-.39,1.86-.92,3.89-1.61,6.11-.69,2.22-1.51,4.47-2.45,6.75-.95,2.28-2.09,4.38-3.41,6.29s-2.83,3.51-4.52,4.79c-1.69,1.28-3.6,2.02-5.73,2.23-3.26,.32-5.73-.42-7.39-2.24-1.66-1.82-2.6-4.21-2.83-7.18-.23-2.97,.2-6.24,1.29-9.81,1.09-3.57,2.75-6.97,4.99-10.18,2.23-3.22,5.02-5.98,8.35-8.3,3.33-2.31,7.1-3.68,11.29-4.1,2.33-.23,4.34,.02,6.03,.76,1.69,.74,3.05,1.63,4.1,2.67,1.26,1.15,2.23,2.54,2.93,4.15l-1.54,.76c-.58-1.15-1.29-2.16-2.12-3.02-.68-.74-1.47-1.4-2.37-1.98-.9-.58-1.81-.83-2.75-.74-1.73,.17-3.48,1.16-5.26,2.95-1.77,1.79-3.44,3.97-5,6.55-1.56,2.58-2.93,5.34-4.12,8.28-1.19,2.94-2.04,5.65-2.57,8.12-.53,2.47-.68,4.51-.45,6.1,.23,1.59,1,2.32,2.34,2.19Zm10.15-16.55c.79-2.23,1.59-4.45,2.41-6.65,.82-2.2,1.58-4.21,2.27-6.03,.8-2.1,1.54-4.09,2.23-5.97l15.56-3.77c-.7,1.75-1.44,3.74-2.23,5.97-.75,1.89-1.59,4.13-2.51,6.71-.92,2.58-2,5.44-3.23,8.59-1.23,3.15-2.2,5.75-2.9,7.8-.71,2.06-1.2,3.69-1.48,4.89-.28,1.21-.34,2.04-.15,2.49,.18,.45,.57,.65,1.17,.59,1.13-.11,2.39-1.01,3.77-2.7,1.38-1.69,2.64-3.53,3.79-5.52,1.38-2.36,2.76-4.98,4.16-7.88-1.11,3.74-2.55,7.11-4.34,10.12-.75,1.29-1.6,2.55-2.55,3.79-.95,1.24-2.03,2.37-3.24,3.4-1.21,1.03-2.54,1.89-3.98,2.57-1.45,.68-3,1.11-4.66,1.27-3.13,.31-5.26-.11-6.38-1.28-1.12-1.17-1.65-2.73-1.58-4.69,.07-1.96,.53-4.17,1.36-6.64,.83-2.47,1.67-4.82,2.52-7.06Z"/>
    <path class="cls-4" d="M330.23,241.15l23.77-64.11,15.56-3.77-23.77,64.11-15.56,3.77Zm42.88-62.68c-.73,.07-1.53,.54-2.38,1.4-.86,.86-1.72,1.97-2.59,3.33-.87,1.37-1.76,2.9-2.67,4.6s-1.77,3.44-2.61,5.2c-1.94,4.16-3.9,8.83-5.87,14,.07-.68,.3-1.71,.7-3.1,.35-1.18,.87-2.77,1.54-4.79,.67-2.02,1.62-4.67,2.84-7.95,.86-2.17,1.79-4.33,2.78-6.48,1-2.15,2.16-4.1,3.5-5.85s2.87-3.21,4.61-4.39c1.73-1.18,3.73-1.89,5.99-2.11,3.06-.31,5.37,.46,6.94,2.28,1.56,1.83,2.44,4.23,2.63,7.2,.2,2.97-.25,6.25-1.34,9.82-1.09,3.57-2.74,6.97-4.94,10.18-2.2,3.21-4.9,5.97-8.1,8.27-3.2,2.3-6.8,3.65-10.79,4.05-3.06,.3-5.55,.12-7.47-.57-1.92-.68-3.43-1.54-4.55-2.57-1.32-1.08-2.26-2.43-2.83-4.06l1.53-.86c.58,1.15,1.29,2.16,2.12,3.02,.68,.74,1.55,1.38,2.61,1.91,1.06,.53,2.26,.73,3.59,.6,1.67-.17,3.35-1.12,5.06-2.87,1.71-1.75,3.3-3.86,4.77-6.33,1.47-2.47,2.77-5.13,3.89-8,1.13-2.87,1.96-5.49,2.49-7.87,.54-2.37,.71-4.34,.52-5.9-.19-1.56-.85-2.29-1.98-2.17Z"/>
    <path class="cls-4" d="M404.12,190c.36-1.11,.91-2.65,1.66-4.6,.75-1.95,1.57-4.14,2.47-6.55,.9-2.41,1.86-4.98,2.87-7.7,1-2.72,2.01-5.41,3.03-8.07,2.33-6.28,4.89-13.03,7.67-20.23l15.56-3.77c-2.66,7.06-5.18,13.8-7.57,20.23-1.01,2.72-2.04,5.5-3.1,8.33-1.06,2.83-2.1,5.56-3.12,8.18-1.02,2.62-1.95,5.07-2.8,7.34-.85,2.27-1.57,4.17-2.16,5.71-1.23,3.15-2.2,5.75-2.9,7.81-.71,2.05-1.2,3.68-1.48,4.89-.28,1.21-.33,2.04-.15,2.49,.18,.45,.57,.65,1.17,.59,1.13-.11,2.39-1.01,3.77-2.7,1.38-1.69,2.64-3.53,3.79-5.52,1.38-2.36,2.76-4.98,4.16-7.88-1.11,3.74-2.55,7.11-4.34,10.12-.75,1.29-1.6,2.55-2.55,3.79s-2.03,2.37-3.24,3.4c-1.21,1.03-2.54,1.89-3.98,2.57-1.45,.68-3,1.11-4.66,1.27-3.13,.31-5.26-.11-6.38-1.28-1.12-1.17-1.65-2.73-1.58-4.69,.07-1.96,.53-4.17,1.36-6.64,.83-2.47,1.67-4.82,2.52-7.06Z"/>
    <path class="cls-4" d="M453.07,203.48c4.53-.45,8.55-2.13,12.06-5.04,3.51-2.9,6.85-6.63,10.03-11.19-1.06,2.19-2.44,4.33-4.15,6.42-1.71,2.09-3.64,3.98-5.79,5.67-2.15,1.69-4.48,3.1-6.99,4.23-2.51,1.13-5.16,1.83-7.96,2.11-4.33,.43-7.69-.22-10.08-1.97-2.39-1.74-3.89-4.1-4.49-7.07-.6-2.97-.37-6.23,.69-9.8,1.06-3.57,2.83-6.99,5.33-10.27,2.5-3.27,5.65-6.09,9.45-8.46,3.8-2.36,8.16-3.79,13.09-4.28,3.33-.33,5.92,.05,7.78,1.14,1.86,1.1,3.02,2.59,3.47,4.5,.46,1.91,.21,4.08-.76,6.53-.97,2.45-2.64,4.89-5.02,7.31s-5.42,4.66-9.12,6.71c-3.7,2.05-8.08,3.66-13.14,4.84-.9-.25-1.18-.55-.85-.93,.33-.37,.73-.61,1.19-.72,1.78-.38,3.51-1.34,5.21-2.89,1.69-1.55,3.25-3.37,4.65-5.46,1.41-2.09,2.66-4.28,3.78-6.58,1.12-2.29,1.97-4.4,2.55-6.3,.58-1.91,.9-3.48,.94-4.73s-.3-1.84-1.03-1.76c-.93,.09-2.17,1.13-3.73,3.1-1.55,1.97-3.13,4.41-4.72,7.33-1.59,2.92-3.05,6.02-4.37,9.31-1.32,3.29-2.23,6.34-2.72,9.15-.49,2.81-.44,5.09,.18,6.84s2.12,2.51,4.51,2.27Z"/>
    <rect class="cls-4" x="379.99" y="176.58" width="3.46" height="5.84"/>
  </g>
  <path class="cls-4" d="M290.28,167.68c1.62-4.67,2.58-5.86,2.76-6.06,.63-.69,1.62-1.51,3.76-1.67l4.1-.33,1.87-5.37-19.22,1.53-29.49,28.61-8.75-25.58-18.23,1.45-1.97,5.66,3.79-.3c.84-.03,1.5,.22,2.01,.77,.23,.42,.43,1.5-.49,4.17l-17.22,49.59c-.69,1.11-1.62,1.89-3.64,2.09l-4.1,.33-1.97,5.66,26.28-2.09,1.94-5.57-4,.32c-.56,.04-1.26-.03-1.7-.99-.04-.1-.31-1.12,1.38-6.48l12.29-35.39,6.93,19.68,5.62-.44,24.05-23.29-18.05,51.95c-1.43,4.12-1.15,7.52,.84,10.1l.09,.1c2.13,2.16,5.29,2.84,9.43,2.04,1.27-.24,2.63-.63,4.08-1.15l2.13-.77c6.36-3.23,10.71-9.48,10.71-9.48-5.65,3.08-10.61,5.21-10.61,5.21l-1.9,.39c-2.16,.5-3.4,.06-4-1.27-.04-.09-.35-1.06,1.41-6.13l19.89-57.27Z"/>
  <g>
    <path class="cls-1" d="M9.49,252.27l25.88-69.26,15.47-3.66-26.37,71.43-14.98,1.49Zm46.3-69.23c-1.4-.82-2.97-1.32-4.7-1.5-1.73-.18-3.5-.11-5.33,.2s-3.62,.79-5.39,1.45c-1.77,.66-3.4,1.41-4.89,2.26-1.49,.85-2.8,1.69-3.94,2.53-1.14,.84-1.96,1.57-2.47,2.18-2.22-.89-3.66-2.09-4.32-3.6-.66-1.51-.64-3.02,.05-4.53,.69-1.51,1.96-2.9,3.79-4.16,1.83-1.26,4.12-2.07,6.87-2.44,2.74-.37,5.84-.16,9.28,.62,3.44,.78,7.11,2.44,11,4.99l.04,1.99ZM4.14,249.74c1.45,.74,3.04,1.15,4.77,1.23,1.73,.08,3.5-.09,5.31-.5,1.81-.41,3.57-.99,5.3-1.75,1.73-.76,3.31-1.6,4.76-2.53,1.44-.93,2.71-1.85,3.79-2.75,1.09-.9,1.87-1.68,2.35-2.32,2.27,.76,3.77,1.88,4.51,3.35,.75,1.47,.81,2.98,.2,4.52-.61,1.55-1.79,3-3.55,4.36-1.76,1.36-4,2.3-6.72,2.82-2.72,.52-5.82,.49-9.3-.1-3.48-.59-7.24-2.04-11.26-4.37l-.15-1.99Z"/>
    <path class="cls-1" d="M35.92,249.98l14.82-39.61,15.56-3.77-15.6,41.91-14.78,1.47Zm38.37-44.18c3.4-.34,5.77,.01,7.12,1.06,1.35,1.04,2.07,2.43,2.18,4.17,.1,1.74-.23,3.67-.99,5.8-.76,2.13-1.54,4.1-2.34,5.93-.79,1.83-1.41,3.35-1.86,4.57-.45,1.22-.31,1.8,.42,1.72,1.13-.11,2.3-.72,3.5-1.81,1.2-1.09,2.31-2.3,3.32-3.61,1.12-1.52,2.23-3.25,3.32-5.17-1.14,2.74-2.51,5.2-4.11,7.37-1.43,1.89-3.22,3.66-5.37,5.32-2.16,1.66-4.77,2.65-7.83,2.95-2.73,.27-4.6-.08-5.6-1.05-1-.97-1.47-2.29-1.4-3.95,.07-1.65,.46-3.48,1.17-5.46,.71-1.99,1.42-3.84,2.12-5.56,.7-1.72,1.18-3.13,1.44-4.23,.26-1.1-.04-1.61-.91-1.52-1.2,.12-2.34,.81-3.43,2.06-1.09,1.25-2.03,2.59-2.83,4.01-.97,1.71-1.83,3.58-2.57,5.6-.46,.79-.96,1.52-1.49,2.22-.54,.69-1,1.29-1.38,1.8-.39,.51-.71,.86-.96,1.05s-.32,.15-.21-.13c.93-2.85,2.06-5.62,3.41-8.31,1.35-2.69,2.82-5.11,4.42-7.25,1.6-2.14,3.31-3.89,5.13-5.25,1.81-1.36,3.72-2.14,5.72-2.34Z"/>
    <path class="cls-1" d="M112.45,202c3.99-.4,7.04,.29,9.13,2.07,2.09,1.78,3.32,4.14,3.68,7.1,.36,2.96-.03,6.24-1.19,9.85-1.15,3.61-2.95,7.04-5.38,10.27-2.44,3.24-5.44,6.03-9,8.36-3.57,2.34-7.55,3.73-11.94,4.17-4,.4-7.12-.28-9.38-2.04-2.26-1.76-3.7-4.1-4.33-7.03-.63-2.93-.45-6.19,.54-9.79,.99-3.59,2.7-7.01,5.13-10.25,2.43-3.23,5.55-6.04,9.35-8.4,3.8-2.36,8.26-3.8,13.39-4.31Zm-14.28,39.96c1.13-.11,2.41-1.15,3.83-3.1,1.42-1.96,2.81-4.37,4.17-7.23,1.36-2.86,2.64-5.93,3.82-9.21,1.19-3.28,2.1-6.31,2.72-9.1,.63-2.78,.92-5.08,.88-6.89-.05-1.81-.57-2.67-1.57-2.57-1.6,.16-3.17,1.22-4.73,3.19-1.55,1.97-3.01,4.39-4.37,7.24-1.36,2.86-2.57,5.93-3.62,9.19-1.05,3.27-1.83,6.28-2.32,9.06-.5,2.77-.67,5.06-.53,6.86,.15,1.8,.72,2.65,1.72,2.55Z"/>
    <path class="cls-1" d="M133.61,239.55l14.72-39.6,15.56-3.77-15.59,41.91-14.69,1.46Zm39.57-44.3c4.66-.47,7.59,.91,8.78,4.12,1.19,3.21,.21,8.47-2.97,15.78-2.51,5.9-4.16,10.05-4.96,12.45-.8,2.4-.61,3.54,.59,3.42,1.13-.11,2.39-1.01,3.77-2.69,1.38-1.69,2.67-3.53,3.89-5.53,1.44-2.36,2.86-4.99,4.26-7.89-1.11,3.74-2.52,7.11-4.24,10.11-.75,1.29-1.6,2.55-2.55,3.79-.95,1.24-2.03,2.37-3.24,3.4s-2.54,1.89-3.98,2.57c-1.45,.68-3,1.11-4.67,1.27-2.06,.21-3.66,.06-4.78-.43-1.13-.49-1.9-1.22-2.34-2.19-.43-.97-.6-2.13-.5-3.48,.1-1.35,.38-2.79,.83-4.32,.45-1.52,.99-3.09,1.6-4.7,.61-1.61,1.22-3.15,1.81-4.62,.86-2.17,1.65-4.2,2.37-6.09s1.25-3.49,1.59-4.8c.34-1.31,.46-2.33,.35-3.06-.11-.73-.56-1.05-1.36-.97-.73,.07-1.53,.54-2.38,1.4-.86,.86-1.74,1.97-2.64,3.34-.91,1.37-1.81,2.9-2.72,4.61-.91,1.7-1.78,3.44-2.61,5.21-1.94,4.16-3.9,8.83-5.87,14,.07-.68,.3-1.71,.7-3.1,.35-1.18,.88-2.78,1.59-4.8s1.67-4.67,2.89-7.96c.86-2.17,1.79-4.33,2.78-6.48,1-2.15,2.16-4.1,3.5-5.85,1.34-1.75,2.86-3.21,4.56-4.39,1.7-1.18,3.68-1.88,5.95-2.11Z"/>
    <path class="cls-1" d="M302.97,215.62c.6-.06,1.25-.48,1.94-1.25s1.41-1.76,2.13-2.94c.72-1.18,1.46-2.53,2.22-4.05,.76-1.52,1.49-3.09,2.2-4.71,1.65-3.73,3.35-7.93,5.1-12.61-.16,1.1-.44,2.57-.82,4.42-.39,1.86-.92,3.89-1.61,6.11-.69,2.22-1.51,4.47-2.45,6.75-.95,2.28-2.09,4.38-3.41,6.29s-2.83,3.51-4.52,4.79c-1.69,1.28-3.6,2.02-5.73,2.23-3.26,.32-5.73-.42-7.39-2.24-1.66-1.82-2.6-4.21-2.83-7.18-.23-2.97,.2-6.24,1.29-9.81,1.09-3.57,2.75-6.97,4.99-10.18,2.23-3.22,5.02-5.98,8.35-8.3,3.33-2.31,7.1-3.68,11.29-4.1,2.33-.23,4.34,.02,6.03,.76,1.69,.74,3.05,1.63,4.1,2.67,1.26,1.15,2.23,2.54,2.93,4.15l-1.54,.76c-.58-1.15-1.29-2.16-2.12-3.02-.68-.74-1.47-1.4-2.37-1.98-.9-.58-1.81-.83-2.75-.74-1.73,.17-3.48,1.16-5.26,2.95-1.77,1.79-3.44,3.97-5,6.55-1.56,2.58-2.93,5.34-4.12,8.28-1.19,2.94-2.04,5.65-2.57,8.12-.53,2.47-.68,4.51-.45,6.1,.23,1.59,1,2.32,2.34,2.19Zm10.15-16.55c.79-2.23,1.59-4.45,2.41-6.65,.82-2.2,1.58-4.21,2.27-6.03,.8-2.1,1.54-4.09,2.23-5.97l15.56-3.77c-.7,1.75-1.44,3.74-2.23,5.97-.75,1.89-1.59,4.13-2.51,6.71-.92,2.58-2,5.44-3.23,8.59-1.23,3.15-2.2,5.75-2.9,7.8-.71,2.06-1.2,3.69-1.48,4.89-.28,1.21-.34,2.04-.15,2.49,.18,.45,.57,.65,1.17,.59,1.13-.11,2.39-1.01,3.77-2.7,1.38-1.69,2.64-3.53,3.79-5.52,1.38-2.36,2.76-4.98,4.16-7.88-1.11,3.74-2.55,7.11-4.34,10.12-.75,1.29-1.6,2.55-2.55,3.79-.95,1.24-2.03,2.37-3.24,3.4-1.21,1.03-2.54,1.89-3.98,2.57-1.45,.68-3,1.11-4.66,1.27-3.13,.31-5.26-.11-6.38-1.28-1.12-1.17-1.65-2.73-1.58-4.69,.07-1.96,.53-4.17,1.36-6.64,.83-2.47,1.67-4.82,2.52-7.06Z"/>
    <path class="cls-1" d="M330.23,241.15l23.77-64.11,15.56-3.77-23.77,64.11-15.56,3.77Zm42.88-62.68c-.73,.07-1.53,.54-2.38,1.4-.86,.86-1.72,1.97-2.59,3.33-.87,1.37-1.76,2.9-2.67,4.6s-1.77,3.44-2.61,5.2c-1.94,4.16-3.9,8.83-5.87,14,.07-.68,.3-1.71,.7-3.1,.35-1.18,.87-2.77,1.54-4.79,.67-2.02,1.62-4.67,2.84-7.95,.86-2.17,1.79-4.33,2.78-6.48,1-2.15,2.16-4.1,3.5-5.85s2.87-3.21,4.61-4.39c1.73-1.18,3.73-1.89,5.99-2.11,3.06-.31,5.37,.46,6.94,2.28,1.56,1.83,2.44,4.23,2.63,7.2,.2,2.97-.25,6.25-1.34,9.82-1.09,3.57-2.74,6.97-4.94,10.18-2.2,3.21-4.9,5.97-8.1,8.27-3.2,2.3-6.8,3.65-10.79,4.05-3.06,.3-5.55,.12-7.47-.57-1.92-.68-3.43-1.54-4.55-2.57-1.32-1.08-2.26-2.43-2.83-4.06l1.53-.86c.58,1.15,1.29,2.16,2.12,3.02,.68,.74,1.55,1.38,2.61,1.91,1.06,.53,2.26,.73,3.59,.6,1.67-.17,3.35-1.12,5.06-2.87,1.71-1.75,3.3-3.86,4.77-6.33,1.47-2.47,2.77-5.13,3.89-8,1.13-2.87,1.96-5.49,2.49-7.87,.54-2.37,.71-4.34,.52-5.9-.19-1.56-.85-2.29-1.98-2.17Z"/>
    <path class="cls-1" d="M404.12,190c.36-1.11,.91-2.65,1.66-4.6,.75-1.95,1.57-4.14,2.47-6.55,.9-2.41,1.86-4.98,2.87-7.7,1-2.72,2.01-5.41,3.03-8.07,2.33-6.28,4.89-13.03,7.67-20.23l15.56-3.77c-2.66,7.06-5.18,13.8-7.57,20.23-1.01,2.72-2.04,5.5-3.1,8.33-1.06,2.83-2.1,5.56-3.12,8.18-1.02,2.62-1.95,5.07-2.8,7.34-.85,2.27-1.57,4.17-2.16,5.71-1.23,3.15-2.2,5.75-2.9,7.81-.71,2.05-1.2,3.68-1.48,4.89-.28,1.21-.33,2.04-.15,2.49,.18,.45,.57,.65,1.17,.59,1.13-.11,2.39-1.01,3.77-2.7,1.38-1.69,2.64-3.53,3.79-5.52,1.38-2.36,2.76-4.98,4.16-7.88-1.11,3.74-2.55,7.11-4.34,10.12-.75,1.29-1.6,2.55-2.55,3.79s-2.03,2.37-3.24,3.4c-1.21,1.03-2.54,1.89-3.98,2.57-1.45,.68-3,1.11-4.66,1.27-3.13,.31-5.26-.11-6.38-1.28-1.12-1.17-1.65-2.73-1.58-4.69,.07-1.96,.53-4.17,1.36-6.64,.83-2.47,1.67-4.82,2.52-7.06Z"/>
    <path class="cls-1" d="M453.07,203.48c4.53-.45,8.55-2.13,12.06-5.04,3.51-2.9,6.85-6.63,10.03-11.19-1.06,2.19-2.44,4.33-4.15,6.42-1.71,2.09-3.64,3.98-5.79,5.67-2.15,1.69-4.48,3.1-6.99,4.23-2.51,1.13-5.16,1.83-7.96,2.11-4.33,.43-7.69-.22-10.08-1.97-2.39-1.74-3.89-4.1-4.49-7.07-.6-2.97-.37-6.23,.69-9.8,1.06-3.57,2.83-6.99,5.33-10.27,2.5-3.27,5.65-6.09,9.45-8.46,3.8-2.36,8.16-3.79,13.09-4.28,3.33-.33,5.92,.05,7.78,1.14,1.86,1.1,3.02,2.59,3.47,4.5,.46,1.91,.21,4.08-.76,6.53-.97,2.45-2.64,4.89-5.02,7.31s-5.42,4.66-9.12,6.71c-3.7,2.05-8.08,3.66-13.14,4.84-.9-.25-1.18-.55-.85-.93,.33-.37,.73-.61,1.19-.72,1.78-.38,3.51-1.34,5.21-2.89,1.69-1.55,3.25-3.37,4.65-5.46,1.41-2.09,2.66-4.28,3.78-6.58,1.12-2.29,1.97-4.4,2.55-6.3,.58-1.91,.9-3.48,.94-4.73s-.3-1.84-1.03-1.76c-.93,.09-2.17,1.13-3.73,3.1-1.55,1.97-3.13,4.41-4.72,7.33-1.59,2.92-3.05,6.02-4.37,9.31-1.32,3.29-2.23,6.34-2.72,9.15-.49,2.81-.44,5.09,.18,6.84s2.12,2.51,4.51,2.27Z"/>
    <rect class="cls-1" x="379.99" y="176.58" width="3.46" height="5.84"/>
  </g>
  <path class="cls-1" d="M290.32,167.69c1.63-4.67,2.58-5.86,2.76-6.06,.63-.69,1.62-1.5,3.77-1.67l4.1-.33,1.87-5.37-19.22,1.53-29.53,28.61-8.73-25.57-18.24,1.45-1.98,5.66,3.79-.3c.84-.03,1.5,.22,2.01,.76,.23,.42,.43,1.5-.5,4.17l-17.29,49.57c-.69,1.11-1.63,1.89-3.65,2.09l-4.1,.33-1.98,5.66,26.29-2.09,1.95-5.56-4,.32c-.56,.04-1.26-.03-1.7-.99-.04-.1-.3-1.12,1.39-6.48l12.34-35.38,6.91,19.68,5.62-.44,24.08-23.29-18.11,51.94c-1.44,4.12-1.16,7.52,.82,10.1l.09,.1c2.13,2.16,5.29,2.84,9.43,2.04,1.27-.24,2.63-.63,4.08-1.15l2.13-.77c6.36-3.23,9.08-7.42,9.08-7.42-5.65,3.08-8.97,3.14-8.97,3.14l-1.9,.39c-2.16,.5-3.4,.06-4-1.27-.04-.09-.35-1.06,1.42-6.13l19.97-57.25Z"/>
</svg>